# xmcd CD database file
#
# Track frame offsets:
#	150
#	16186
#	38218
#	55798
#	73958
#	97138
#	117447
#	135139
#	154822
#	165228
#	184487
#
# Disc length: 2763 seconds
#
# Revision: 3
# Processed by: cddbd v1.5.1PL2 Copyright (c) Steve Scherf et al.
# Submitted via: CDex 1.51
#
DISCID=900ac90b
DTITLE=大塚愛 - LOVE PUNCH
DYEAR=2004
DGENRE=
TTITLE0=pretty voice
TTITLE1=桃ノ花ビラ(ドラマ「すいか」主題歌)
TTITLE2=さくらんぼ(「UNDER CDTV」12月度オープニング・テーマ/「めちゃ2イケてるッ!」エンディング・テーマ)
TTITLE3=GIRLY
TTITLE4=雨の中のメロディー
TTITLE5=しゃぼん玉
TTITLE6=石川大阪友好条約
TTITLE7=片想いダイヤル
TTITLE8=ハニー
TTITLE9=甘えんぼ(「ストナリニS」2004年TVCFイメージソング)
TTITLE10=Always Together
EXTD=YEAR: 2004
EXTT0=
EXTT1=
EXTT2=
EXTT3=
EXTT4=
EXTT5=
EXTT6=
EXTT7=
EXTT8=
EXTT9=
EXTT10=
PLAYORDER=
